PathFileType	4	(X/Y/Z)	D:\TRACE\spotREDO_2-26-24\spot_justBody_Motion_3_5-platform.trc
DataRate	CameraRate	NumFrames	NumMarkers	Units	OrigDataRate	OrigDataStartFrame	OrigNumFrames
100.00	100.00	      42	5	mm	100.00	5251	      7000
Frame#	Time	Left_Front			Right_Front			Left_Aft			Right_Aft			Post			
		X1	Y1	Z1	X2	Y2	Z2	X3	Y3	Z3	X4	Y4	Z4	X5	Y5	Z5	

5251	52.500	-682.25903	-25.49587	-580.73755	732.64124	-13.79782	-496.24100	-753.72882	26.59470	636.78326	816.44653	33.85168	640.44305	27.22878	586.31738	-1009.99030	
5252	52.510	-682.37488	-25.48969	-580.76477	732.56366	-13.74929	-496.11115	-753.93646	26.53697	636.81409	816.41254	33.74103	640.52643	27.13539	586.41217	-1009.90387	
5253	52.520	-682.69482	-25.47254	-580.77411	732.27014	-13.61049	-496.19714	-754.29883	26.49895	636.87402	816.08063	33.72491	640.68622	26.97424	586.46655	-1009.82043	
5254	52.530	-682.95557	-25.40454	-580.73450	732.07758	-13.53814	-496.28403	-754.60736	26.25014	636.83124	815.89600	33.77179	640.77148	26.73018	586.55908	-1009.68121	
5255	52.540	-683.21643	-25.28417	-580.69635	731.83539	-13.56910	-496.26935	-754.75140	26.14803	636.79169	815.74829	33.84796	640.79541	26.47026	586.65302	-1009.47809	
5256	52.550	-683.42834	-25.22116	-580.70239	731.59918	-13.49082	-496.26660	-754.84753	26.05212	636.81744	815.65002	33.86709	640.83563	26.10582	586.79565	-1009.28656	
5257	52.560	-683.49194	-25.17244	-580.67572	731.47418	-13.48494	-496.23102	-755.05853	26.15088	636.86652	815.51563	33.81509	640.75232	25.88167	586.87720	-1009.16461	
5258	52.570	-683.61652	-25.20792	-580.70190	731.28125	-13.48722	-496.28479	-755.04999	25.89404	637.04633	815.39832	33.74806	640.68719	25.66565	586.95563	-1009.04858	
5259	52.580	-683.71930	-25.25286	-580.71112	731.17834	-13.47072	-496.24277	-755.24634	25.91927	637.11047	815.11292	33.70011	640.57251	25.56323	586.99451	-1009.03314	
5260	52.590	-683.92096	-25.20823	-580.73273	730.91620	-13.27815	-496.35458	-755.55969	25.88556	637.13403	814.81122	33.74842	640.54584	25.33287	587.10718	-1009.04565	
5261	52.600	-684.07397	-25.17060	-580.71368	730.61786	-13.23290	-496.37405	-755.90265	25.98711	637.08838	814.43158	33.87519	640.74744	25.13390	587.17688	-1009.12866	
5262	52.610	-684.32733	-25.13930	-580.71606	730.27454	-13.15035	-496.25494	-756.18933	26.26089	636.99536	814.07538	33.74873	640.77692	24.94962	587.21014	-1009.19385	
5263	52.620	-684.64276	-25.04078	-580.72021	730.03418	-13.13686	-496.15747	-756.37079	26.00988	636.95844	813.69275	33.60215	640.75427	24.72616	587.28595	-1009.28705	
5264	52.630	-684.88904	-25.03317	-580.69354	729.88226	-13.07152	-496.19177	-756.55664	25.92141	636.92981	813.50458	33.49881	640.75464	24.50741	587.31189	-1009.36835	
5265	52.640	-685.10510	-25.00858	-580.67859	729.81897	-13.11312	-496.13837	-756.91809	25.76061	636.92017	813.47064	33.65773	640.79327	24.25428	587.36609	-1009.36652	
5266	52.650	-685.14386	-24.91965	-580.70258	729.69373	-13.00786	-496.18106	-756.81494	25.95077	636.96362	813.34766	33.37683	640.73596	24.10358	587.50122	-1009.31799	
5267	52.660	-685.36517	-24.96801	-580.67120	729.57288	-13.13541	-496.18564	-757.21484	25.59078	636.95172	813.27399	33.32928	640.74078	24.08699	587.49847	-1009.24280	
5268	52.670	-685.79456	-24.99677	-580.58112	729.27594	-13.19319	-496.09705	-757.32190	25.65113	636.92114	813.00104	33.45818	640.79956	23.90815	587.42273	-1009.10712	
5269	52.680	-686.01666	-25.11067	-580.59747	728.85376	-13.27907	-496.30527	-757.50916	25.72159	636.95496	812.70599	33.36908	640.81171	23.42605	587.42499	-1009.00134	
5270	52.690	-686.34906	-25.04176	-580.58496	728.56592	-13.44614	-496.29214	-757.80695	25.83446	636.93652	812.34265	33.49987	640.82623	23.11797	587.57068	-1008.88849	
5271	52.700	-686.57294	-25.02392	-580.61914	728.46265	-13.32662	-496.25528	-758.00519	25.81523	636.96454	812.13300	33.67218	640.77936	22.90629	587.55084	-1009.05096	
5272	52.710	-686.76038	-24.93754	-580.62000	728.05939	-13.20126	-496.22137	-758.18402	25.77997	636.96948	811.94159	33.61497	640.78931	22.77114	587.50989	-1009.06445	
5273	52.720	-686.91260	-24.90073	-580.63995	727.93292	-13.32997	-496.12244	-758.23090	25.92047	637.07513	811.67749	33.56682	640.81567	23.03194	587.49390	-1008.87744	
5274	52.730	-687.01624	-24.92815	-580.73285	727.73755	-13.41063	-496.05530	-758.19702	26.02523	637.10809	811.46869	33.50214	640.85913	22.99497	587.53186	-1008.96271	
5275	52.740	-687.27899	-24.84891	-580.60602	727.53882	-13.41251	-496.06335	-758.62891	25.84744	636.98859	811.40173	33.28171	640.64807	22.79420	587.59790	-1009.05780	
5276	52.750	-687.42841	-24.86887	-580.66919	727.37750	-13.36555	-496.05035	-758.88440	25.79731	636.98987	811.33826	33.27069	640.56262	22.44438	587.54413	-1009.30347	
5277	52.760	-687.63190	-24.77534	-580.63678	727.16125	-13.26311	-496.07059	-759.11511	25.87522	637.01746	811.17047	33.33742	640.55304	22.01244	587.54144	-1009.23291	
5278	52.770	-687.72455	-24.73919	-580.59387	727.00226	-13.28818	-496.12210	-759.18073	25.77235	637.21210	810.98431	33.28484	640.57013	21.79790	587.70386	-1009.12079	
5279	52.780	-687.92078	-24.83327	-580.61414	726.92804	-13.32096	-496.04904	-759.33331	25.62779	637.16602	810.65393	33.63799	640.84692	21.73488	587.68762	-1008.89270	
5280	52.790	-688.07550	-24.85351	-580.60559	726.85278	-13.31441	-496.03638	-759.46387	25.53319	637.10712	810.47064	33.56869	640.83313	21.64620	587.65149	-1008.63708	
5281	52.800	-688.28821	-24.87690	-580.66962	726.70355	-13.42574	-496.10455	-759.59399	25.23232	637.10449	810.30139	33.58609	640.79205	21.48497	587.37628	-1008.57385	
5282	52.810	-688.45215	-24.90525	-580.67828	726.58240	-13.42897	-496.11118	-760.12811	26.12900	636.86340	810.21051	33.63921	640.77173	21.29895	587.32318	-1008.50818	
5283	52.820	-688.56543	-24.89970	-580.67175	726.41284	-13.29187	-496.16388	-760.24847	26.17156	636.88538	810.07275	33.58523	640.78033	21.06489	587.39685	-1008.67865	
5284	52.830	-688.92328	-24.84801	-580.61047	726.27478	-13.27092	-496.19928	-760.42120	26.14276	636.91425	809.92865	33.57796	640.76233	20.78651	587.30377	-1008.78784	
5285	52.840	-689.12097	-24.89996	-580.63770	726.07227	-13.37322	-496.23520	-760.59698	26.10422	636.95703	809.80664	33.55498	640.78284	20.49560	587.36621	-1009.03394	
5286	52.850	-689.33960	-24.96783	-580.72083	725.92474	-13.38836	-496.18927	-760.80432	26.12449	636.89117	809.65399	33.50584	640.77643	20.08894	587.32397	-1009.32874	
5287	52.860	-689.54004	-25.04263	-580.78857	725.74121	-13.52143	-496.05853	-760.91327	26.10508	636.87939	809.42676	33.52875	640.78302	19.87585	587.25092	-1009.49890	
5288	52.870	-689.60657	-24.94452	-580.73737	725.65936	-13.49959	-496.06992	-761.04785	26.14591	636.88086	809.17828	33.53848	640.79645	19.81962	587.29895	-1009.51154	
5289	52.880	-689.67908	-24.92067	-580.69183	725.47070	-13.51227	-496.10120	-761.05652	26.47284	637.06323	809.05927	33.48736	640.78461	19.82186	587.23260	-1009.51788	
5290	52.890	-689.76666	-24.92565	-580.67267	725.31171	-13.49774	-496.05289	-761.29419	26.31903	636.91998	808.88947	33.49590	640.79840	19.73481	587.22168	-1009.54547	
5291	52.900	-689.84521	-24.97677	-580.64844	725.06494	-13.39497	-496.18948	-761.45966	26.31996	636.87128	808.78174	33.56363	640.82654	19.76383	587.09711	-1009.49121	
5292	52.910	-689.91760	-25.09409	-580.72113	724.95044	-13.49075	-496.18298	-761.64178	26.39909	636.84003	808.67517	33.62841	640.83563	19.68103	587.01001	-1009.42786	
